<svg width="64" height="64" viewBox="0 0 64 64" xmlns="http://www.w3.org/2000/svg">
  <defs>
    <linearGradient id="bg" x1="0%" y1="0%" x2="100%" y2="100%">
      <stop offset="0%" style="stop-color:#7D1D3F;stop-opacity:1" />
      <stop offset="100%" style="stop-color:#5A1530;stop-opacity:1" />
    </linearGradient>
    <linearGradient id="crown" x1="0%" y1="0%" x2="100%" y2="100%">
      <stop offset="0%" style="stop-color:#F4D03F;stop-opacity:1" />
      <stop offset="50%" style="stop-color:#C9963F;stop-opacity:1" />
      <stop offset="100%" style="stop-color:#B8860B;stop-opacity:1" />
    </linearGradient>
  </defs>
  
  <!-- Background -->
  <rect width="64" height="64" rx="12" fill="url(#bg)"/>
  
  <!-- Crown -->
  <g transform="translate(32, 20)">
    <path d="M -12 8 L -12 10 L 12 10 L 12 8 Z" fill="url(#crown)"/>
    <path d="M -12 8 L -10 0 L -8 7 L -4 2 L 0 7 L 4 2 L 8 7 L 10 0 L 12 8 Z" 
          fill="url(#crown)" stroke="#B8860B" stroke-width="0.5"/>
    <circle cx="-6" cy="5" r="1" fill="#7D1D3F"/>
    <circle cx="0" cy="5" r="1" fill="#7D1D3F"/>
    <circle cx="6" cy="5" r="1" fill="#7D1D3F"/>
  </g>
  
  <!-- Hebrew letter Yud stylized -->
  <path d="M 32 35 Q 30 37 30.5 39 Q 32 41 33.5 39 Q 34 37 32 35 Z" fill="#C9963F"/>
  
  <!-- Book -->
  <g transform="translate(32, 45)">
    <rect x="-10" y="-4" width="20" height="8" rx="1" fill="#F8F5F0" stroke="#C9963F" stroke-width="0.8"/>
    <line x1="0" y1="-4" x2="0" y2="4" stroke="#C9963F" stroke-width="0.5"/>
  </g>
</svg>