<?xml version="1.0" standalone="no"?>
<!DOCTYPE svg PUBLIC "-//W3C//DTD SVG 20010904//EN"
 "http://www.w3.org/TR/2001/REC-SVG-20010904/DTD/svg10.dtd">
<svg version="1.0" xmlns="http://www.w3.org/2000/svg"
 width="246.000000pt" height="246.000000pt" viewBox="0 0 246.000000 246.000000"
 preserveAspectRatio="xMidYMid meet">
<metadata>
Created by potrace 1.16, written by Peter Selinger 2001-2019
</metadata>
<g transform="translate(0.000000,246.000000) scale(0.100000,-0.100000)"
fill="#000000" stroke="none">
<path d="M1200 1399 c-298 -8 -479 -36 -494 -75 -9 -23 -7 -31 3 -15 8 12 11
9 16 -12 9 -33 19 -33 171 -10 152 23 529 23 673 0 150 -24 158 -23 166 14 5
22 3 34 -6 40 -21 13 -135 37 -219 46 -73 7 -74 8 -30 14 l45 6 -40 0 c-22 0
-150 -4 -285 -8z"/>
<path d="M818 1264 c-3 -3 -95 -9 -204 -14 -110 -5 -207 -12 -216 -15 -10 -4
-20 -22 -24 -41 -6 -34 -7 -34 -59 -34 -50 0 -53 -2 -57 -27 -15 -90 -243
-942 -248 -928 -3 10 -6 -6 -6 -34 0 -33 4 -51 12 -51 6 0 54 9 106 19 277 57
614 50 866 -19 84 -23 175 -67 167 -80 -3 -5 0 -12 6 -16 8 -5 9 -3 4 6 -5 9
-2 10 14 5 45 -14 83 -6 163 34 102 51 197 75 370 96 225 26 420 16 661 -34
l89 -18 -6 21 c-16 57 -266 1018 -266 1022 0 2 -24 5 -52 6 l-53 1 55 7 55 7
-47 1 c-42 2 -48 5 -49 25 -1 21 -1 21 -9 -3 l-8 -25 -1 26 c-1 16 -8 30 -18
34 -37 14 -283 18 -375 6 -151 -20 -225 -43 -382 -119 -5 -3 -5 2 -1 9 5 8 4
11 -1 6 -5 -5 -9 -14 -9 -19 0 -6 -6 -13 -14 -16 -9 -3 -11 0 -6 9 5 8 -4 3
-18 -10 -26 -24 -27 -24 -49 -6 l-23 19 22 -24 c22 -23 23 -24 45 -5 l23 19
-21 -23 -22 -23 -53 40 c-93 68 -181 103 -344 133 l-100 19 70 -4 c43 -3 58
-1 40 3 l-30 8 35 5 c35 5 35 5 4 6 -17 1 -33 -1 -36 -4z m-80 -104 c172 -18
297 -60 400 -133 l42 -30 0 -373 0 -373 -62 43 c-141 98 -301 145 -523 153
-85 3 -174 1 -205 -5 -30 -6 -57 -8 -59 -6 -4 4 105 642 119 694 6 23 13 26
71 31 104 9 120 9 217 -1z m1245 -6 c16 -4 27 -12 27 -22 0 -9 27 -169 61
-355 34 -186 59 -340 56 -343 -2 -2 -28 1 -57 7 -90 19 -337 6 -451 -24 -114
-30 -226 -80 -292 -130 -26 -21 -49 -37 -52 -37 -3 0 -5 166 -5 369 l0 369 38
30 c91 72 243 126 395 142 79 8 222 5 280 -6z m-1628 -106 c-99 -538 -132
-723 -131 -725 1 -1 28 5 61 14 36 9 129 17 230 20 145 4 184 2 268 -15 116
-24 243 -82 307 -141 l45 -40 -62 24 c-190 75 -567 106 -823 67 -69 -10 -126
-19 -127 -18 -1 1 177 732 198 809 13 48 43 53 34 5z m1830 -205 c31 -131 78
-323 104 -426 l47 -188 -25 5 c-158 32 -437 45 -587 27 -120 -15 -290 -54
-352 -81 -25 -11 -47 -18 -49 -16 -9 9 104 90 162 117 126 60 201 73 415 73
142 1 213 -4 263 -15 37 -9 67 -12 67 -7 0 14 -130 721 -135 736 -2 7 4 12 14
12 15 0 27 -36 76 -237z"/>
</g>
</svg>
